<svg width="20" height="20" viewBox="0 0 20 20" fill="none" xmlns="http://www.w3.org/2000/svg">
<g clip-path="url(#clip0)">
<path fill-rule="evenodd" clip-rule="evenodd" d="M10 18.75C12.3206 18.75 14.5462 17.8281 16.1872 16.1872C17.8281 14.5462 18.75 12.3206 18.75 10C18.75 7.67936 17.8281 5.45376 16.1872 3.81282C14.5462 2.17187 12.3206 1.25 10 1.25C7.67936 1.25 5.45376 2.17187 3.81282 3.81282C2.17187 5.45376 1.25 7.67936 1.25 10C1.25 12.3206 2.17187 14.5462 3.81282 16.1872C5.45376 17.8281 7.67936 18.75 10 18.75ZM10 20C12.6522 20 15.1957 18.9464 17.0711 17.0711C18.9464 15.1957 20 12.6522 20 10C20 7.34784 18.9464 4.8043 17.0711 2.92893C15.1957 1.05357 12.6522 0 10 0C7.34784 0 4.8043 1.05357 2.92893 2.92893C1.05357 4.8043 0 7.34784 0 10C0 12.6522 1.05357 15.1957 2.92893 17.0711C4.8043 18.9464 7.34784 20 10 20Z" fill="#CC0022"/>
<path d="M8.75256 13.7499C8.75256 13.5858 8.7849 13.4232 8.84771 13.2715C8.91053 13.1199 9.00261 12.9821 9.11868 12.866C9.23475 12.7499 9.37255 12.6579 9.52421 12.5951C9.67587 12.5322 9.83841 12.4999 10.0026 12.4999C10.1667 12.4999 10.3293 12.5322 10.4809 12.5951C10.6326 12.6579 10.7704 12.7499 10.8864 12.866C11.0025 12.9821 11.0946 13.1199 11.1574 13.2715C11.2202 13.4232 11.2526 13.5858 11.2526 13.7499C11.2526 14.0814 11.1209 14.3994 10.8864 14.6338C10.652 14.8682 10.3341 14.9999 10.0026 14.9999C9.67104 14.9999 9.3531 14.8682 9.11868 14.6338C8.88426 14.3994 8.75256 14.0814 8.75256 13.7499ZM8.87506 6.24365C8.85842 6.08595 8.87511 5.92652 8.92406 5.77569C8.97302 5.62486 9.05313 5.486 9.15921 5.36814C9.26529 5.25027 9.39497 5.15602 9.53983 5.09151C9.68469 5.02699 9.84149 4.99365 10.0001 4.99365C10.1586 4.99365 10.3154 5.02699 10.4603 5.09151C10.6052 5.15602 10.7348 5.25027 10.8409 5.36814C10.947 5.486 11.0271 5.62486 11.0761 5.77569C11.125 5.92652 11.1417 6.08595 11.1251 6.24365L10.6876 10.6274C10.6729 10.7996 10.5941 10.96 10.4668 11.0769C10.3395 11.1939 10.1729 11.2587 10.0001 11.2587C9.82722 11.2587 9.66068 11.1939 9.53337 11.0769C9.40606 10.96 9.32726 10.7996 9.31256 10.6274L8.87506 6.24365Z" fill="#CC0022"/>
</g>
<defs>
<clipPath id="clip0">
<rect width="20" height="20" fill="white"/>
</clipPath>
</defs>
</svg>
