<svg width="20" height="20" viewBox="0 0 20 20" fill="none" xmlns="http://www.w3.org/2000/svg">
<path d="M10 20C15.5228 20 20 15.5228 20 10C20 4.47715 15.5228 0 10 0C4.47715 0 0 4.47715 0 10C0 15.5228 4.47715 20 10 20Z" fill="#26A17B"/>
<path fill-rule="evenodd" clip-rule="evenodd" d="M11.0138 10.9775V10.9763C10.945 10.9813 10.5906 11.0025 9.8 11.0025C9.16875 11.0025 8.72438 10.9838 8.56813 10.9763V10.9781C6.13812 10.8713 4.32437 10.4481 4.32437 9.94187C4.32437 9.43625 6.13812 9.01312 8.56813 8.90438V10.5569C8.72688 10.5681 9.18188 10.595 9.81063 10.595C10.565 10.595 10.9431 10.5638 11.0138 10.5575V8.90563C13.4388 9.01375 15.2481 9.43687 15.2481 9.94187C15.2481 10.4481 13.4388 10.87 11.0138 10.9775ZM11.0138 8.73375V7.255H14.3975V5H5.18438V7.255H8.56813V8.73312C5.81813 8.85938 3.75 9.40437 3.75 10.0569C3.75 10.7094 5.81813 11.2537 8.56813 11.3806V16.1194H11.0138V11.3794C13.7594 11.2531 15.8225 10.7087 15.8225 10.0569C15.8225 9.405 13.7594 8.86063 11.0138 8.73375Z" fill="white"/>
</svg>
