<svg width="20" height="20" viewBox="0 0 20 20" fill="none" xmlns="http://www.w3.org/2000/svg">
<path d="M11.1849 10.2969L8.96329 10.2973V13.0869H11.1849C11.9539 13.0869 12.5797 12.4611 12.5797 11.6919C12.5797 11.3214 12.4341 10.9717 12.1695 10.7071C11.905 10.4425 11.5553 10.2968 11.1849 10.2969Z" fill="#FEA828"/>
<path d="M11.9782 8.01947C11.9782 7.72588 11.8627 7.44869 11.6529 7.23889C11.4431 7.02908 11.1659 6.91354 10.8724 6.91357H8.96329V9.12498H10.8904C11.4918 9.11525 11.9782 8.62326 11.9782 8.01947Z" fill="#FEA828"/>
<path d="M10 3.28125C6.29527 3.28125 3.28125 6.29527 3.28125 10C3.28125 13.7047 6.29527 16.7188 10 16.7188C13.7047 16.7188 16.7188 13.7047 16.7188 10C16.7188 6.29527 13.7047 3.28125 10 3.28125ZM11.1848 14.2586H10.5859V15.3906H9.41406V14.2586H6.83441V13.0867H7.79137V6.91332H6.83441V5.74145H9.41406V4.60938H10.5859V5.74145H10.8723C11.4788 5.74141 12.0503 5.97883 12.4815 6.41C12.9126 6.84117 13.15 7.4127 13.15 8.01926C13.15 8.60027 12.931 9.1309 12.5717 9.53371C12.7237 9.63215 12.8669 9.74691 12.9981 9.87824C13.484 10.3642 13.7516 11.0082 13.7515 11.6917C13.7515 13.1071 12.6001 14.2586 11.1848 14.2586Z" fill="#FEA828"/>
<path d="M17.0711 2.92891C15.1823 1.0402 12.6711 0 10 0C7.32891 0 4.8177 1.0402 2.92891 2.92891C1.0402 4.8177 0 7.32891 0 10C0 12.6711 1.0402 15.1823 2.92891 17.0711C4.8177 18.9598 7.32891 20 10 20C12.6711 20 15.1823 18.9598 17.0711 17.0711C18.9598 15.1823 20 12.6711 20 10C20 7.32891 18.9598 4.8177 17.0711 2.92891ZM10 17.8906C5.6491 17.8906 2.10938 14.3509 2.10938 10C2.10938 5.6491 5.6491 2.10938 10 2.10938C14.3509 2.10938 17.8906 5.6491 17.8906 10C17.8906 14.3509 14.3509 17.8906 10 17.8906Z" fill="#FEA828"/>
</svg>
