<svg width="20" height="20" viewBox="0 0 20 20" fill="none" xmlns="http://www.w3.org/2000/svg">
<g clip-path="url(#clip0)">
<path d="M9.99752 0L9.86334 0.455773V13.6801L9.99752 13.8139L16.136 10.1855L9.99752 0Z" fill="#343434"/>
<path d="M9.99615 0L3.85754 10.1855L9.99615 13.8139V7.39524V0Z" fill="#8C8C8C"/>
<path d="M9.99756 14.9767L9.92194 15.0689V19.7796L9.99756 20.0004L16.1398 11.3501L9.99756 14.9767Z" fill="#3C3C3B"/>
<path d="M9.99615 20.0004V14.9767L3.85754 11.3501L9.99615 20.0004Z" fill="#8C8C8C"/>
<path d="M10.0001 13.8137L16.1385 10.1852L10.0001 7.39502V13.8137Z" fill="#141414"/>
<path d="M3.85754 10.1852L9.99615 13.8137V7.39502L3.85754 10.1852Z" fill="#393939"/>
</g>
<path d="M10 19C5.02944 19 1 14.9706 1 10H-1C-1 16.0751 3.92487 21 10 21V19ZM19 10C19 14.9706 14.9706 19 10 19V21C16.0751 21 21 16.0751 21 10H19ZM10 1C14.9706 1 19 5.02944 19 10H21C21 3.92487 16.0751 -1 10 -1V1ZM10 -1C3.92487 -1 -1 3.92487 -1 10H1C1 5.02944 5.02944 1 10 1V-1Z" fill="black" fill-opacity="0.04"/>
<defs>
<clipPath id="clip0">
<path d="M0 10C0 4.47715 4.47715 0 10 0C15.5228 0 20 4.47715 20 10C20 15.5228 15.5228 20 10 20C4.47715 20 0 15.5228 0 10Z" fill="white"/>
</clipPath>
</defs>
</svg>
