<svg width="20" height="20" viewBox="0 0 20 20" fill="none" xmlns="http://www.w3.org/2000/svg">
<path d="M10 20C15.5228 20 20 15.5228 20 10C20 4.47715 15.5228 0 10 0C4.47715 0 0 4.47715 0 10C0 15.5228 4.47715 20 10 20Z" fill="#0088CC"/>
<path fill-rule="evenodd" clip-rule="evenodd" d="M6.77296 5.55566C6.68109 5.55566 6.59418 5.5976 6.53682 5.66962L3.95516 8.9084C3.85881 9.02927 3.8685 9.20348 3.9775 9.31288L9.78606 15.1426C9.90413 15.2612 10.0957 15.2612 10.2139 15.1426L16.0225 9.31288C16.1316 9.20348 16.141 9.02927 16.0447 8.9084L13.4633 5.66962C13.4058 5.5976 13.3189 5.55566 13.2269 5.55566H9.99998H6.77296ZM7.49616 8.79451L6.67053 6.47399L4.82088 8.79451H7.49616ZM9.26263 13.7585L4.92182 9.40173H7.71231L9.26263 13.7585ZM9.99998 14.0252L8.35481 9.40173H9.99998H11.6451L9.99998 14.0252ZM10.7373 13.7585L12.2875 9.40173H15.0783L10.7373 13.7585ZM12.5039 8.79451H15.1791L13.3296 6.47399L12.5039 8.79451ZM10.5541 6.16295H12.7977L11.9964 8.4147L10.5541 6.16295ZM9.99998 6.4208L11.5204 8.79451H9.99998H8.47959L9.99998 6.4208ZM9.44576 6.16295L8.00358 8.4147L7.20229 6.16295H9.44576Z" fill="white"/>
</svg>
