<svg width="19" height="19" viewBox="0 0 19 19" fill="none" xmlns="http://www.w3.org/2000/svg">
<path d="M11.41 8.99977L18.7 1.70977C18.8638 1.51847 18.9494 1.2724 18.9397 1.02072C18.93 0.769043 18.8256 0.530305 18.6475 0.35221C18.4694 0.174116 18.2307 0.0697826 17.979 0.0600615C17.7274 0.0503403 17.4813 0.135947 17.29 0.299773L9.99997 7.58977L2.70997 0.289773C2.51867 0.125947 2.2726 0.040341 2.02092 0.0500622C1.76924 0.0597833 1.53051 0.164115 1.35241 0.34221C1.17432 0.520304 1.06998 0.759043 1.06026 1.01072C1.05054 1.2624 1.13615 1.50847 1.29997 1.69977L8.58997 8.99977L1.28997 16.2898C1.18529 16.3794 1.10027 16.4897 1.04025 16.6138C0.980225 16.7379 0.946494 16.873 0.941175 17.0107C0.935855 17.1484 0.959061 17.2858 1.00934 17.4141C1.05961 17.5424 1.13587 17.659 1.23332 17.7564C1.33078 17.8539 1.44733 17.9301 1.57565 17.9804C1.70398 18.0307 1.84131 18.0539 1.97903 18.0486C2.11675 18.0433 2.25188 18.0095 2.37594 17.9495C2.50001 17.8895 2.61033 17.8045 2.69997 17.6998L9.99997 10.4098L17.29 17.6998C17.4813 17.8636 17.7274 17.9492 17.979 17.9395C18.2307 17.9298 18.4694 17.8254 18.6475 17.6473C18.8256 17.4692 18.93 17.2305 18.9397 16.9788C18.9494 16.7271 18.8638 16.4811 18.7 16.2898L11.41 8.99977Z" fill="#96A1A7"/>
</svg>
