<svg width="60" height="60" fill="none" xmlns="http://www.w3.org/2000/svg"><path d="M59 10H42V5a5 5 0 00-5-5H7a5 5 0 00-5 5v39H1a1 1 0 00-1 1v2a5 5 0 005 5h7v3a5 5 0 005 5h38a5 5 0 005-5V11a1 1 0 00-1-1zM34 5a3 3 0 016 0v5h-6V5zM4 5a3.009 3.009 0 013-3h26.03A4.924 4.924 0 0032 5v42a3 3 0 01-6 0v-2a1 1 0 00-1-1H4V5zm1 45a3.01 3.01 0 01-3-3v-1h22v1a4.985 4.985 0 001 3H5zm47 5a3.01 3.01 0 01-3 3H17a3.01 3.01 0 01-3-3v-3h15a5 5 0 005-5v-7.05A10.984 10.984 0 0044 29v-7.18a3 3 0 10-2 0V29a9.008 9.008 0 01-8 8.94V12h18v43zM42 19a1 1 0 112 0 1 1 0 01-2 0zm16 36a3.01 3.01 0 01-3 3h-2.03A4.924 4.924 0 0054 55V12h4v43z" fill="#3C6CCE"/><path d="M14 27a1 1 0 001 1h12a1 1 0 000-2H15a1 1 0 00-1 1zM27 30H15a1 1 0 000 2h12a1 1 0 000-2zM11 26H9a1 1 0 000 2h2a1 1 0 000-2zM11 30H9a1 1 0 000 2h2a1 1 0 000-2zM27 34H15a1 1 0 000 2h12a1 1 0 000-2zM28 39a1 1 0 00-1-1H15a1 1 0 000 2h12a1 1 0 001-1zM11 34H9a1 1 0 000 2h2a1 1 0 000-2zM11 38H9a1 1 0 000 2h2a1 1 0 000-2zM17 20a1.978 1.978 0 00-.278-1h2.556c-.18.303-.276.648-.278 1a2 2 0 004 0 1.978 1.978 0 00-.278-1H24a1 1 0 000-2H14v-1h9a1 1 0 00.949-.684l2-6A1 1 0 0025 8H14V6a1 1 0 00-1-1h-3a1 1 0 000 2h2v11a1 1 0 001 1h.278c-.18.303-.276.648-.278 1a2 2 0 004 0zm5.279-6H14v-4h9.613l-1.334 4z" fill="#3C6CCE"/></svg>